<svg id="visual" viewBox="0 0 900 600" width="900" height="600" xmlns="http://www.w3.org/2000/svg" xmlns:xlink="http://www.w3.org/1999/xlink" version="1.1"><rect x="0" y="0" width="900" height="600" fill="#0A0E14"></rect><defs><linearGradient id="grad1_0" x1="33.3%" y1="100%" x2="100%" y2="0%"><stop offset="20%" stop-color="#0a0e14" stop-opacity="1"></stop><stop offset="80%" stop-color="#0a0e14" stop-opacity="1"></stop></linearGradient></defs><defs><linearGradient id="grad2_0" x1="0%" y1="100%" x2="66.7%" y2="0%"><stop offset="20%" stop-color="#0a0e14" stop-opacity="1"></stop><stop offset="80%" stop-color="#0a0e14" stop-opacity="1"></stop></linearGradient></defs><g transform="translate(900, 600)"><path d="M-324.5 0C-310.4 -53.2 -296.3 -106.4 -271.1 -156.5C-245.8 -206.6 -209.3 -253.5 -162.2 -281C-115.2 -308.5 -57.6 -316.5 0 -324.5L0 0Z" fill="#fabd35"></path></g><g transform="translate(0, 0)"><path d="M324.5 0C316.2 57 307.8 114 281 162.2C254.2 210.4 208.9 249.8 159 275.4C109.1 301 54.5 312.7 0 324.5L0 0Z" fill="#fabd35"></path></g></svg>