<svg id="visual" viewBox="0 0 1540 650" width="1540" height="650" xmlns="http://www.w3.org/2000/svg" xmlns:xlink="http://www.w3.org/1999/xlink" version="1.1"><rect x="0" y="0" width="1540" height="650" fill="#FFF"></rect><path d="M0 164L64.2 173.2C128.3 182.3 256.7 200.7 385 218.5C513.3 236.3 641.7 253.7 770 262C898.3 270.3 1026.7 269.7 1155 254C1283.3 238.3 1411.7 207.7 1475.8 192.3L1540 177L1540 0L1475.8 0C1411.7 0 1283.3 0 1155 0C1026.7 0 898.3 0 770 0C641.7 0 513.3 0 385 0C256.7 0 128.3 0 64.2 0L0 0Z" fill="#073B4C" stroke-linecap="round" stroke-linejoin="miter"></path></svg>